<?xml version="1.0" encoding="UTF-8"?><svg xmlns="http://www.w3.org/2000/svg" xmlns:xlink="http://www.w3.org/1999/xlink" fill-opacity="1" color-rendering="auto" color-interpolation="auto" text-rendering="auto" stroke="black" stroke-linecap="square" width="1060" stroke-miterlimit="10" shape-rendering="auto" stroke-opacity="1" fill="black" stroke-dasharray="none" font-weight="normal" stroke-width="1" height="1263" font-family="'Dialog'" font-style="normal" stroke-linejoin="miter" font-size="12px" stroke-dashoffset="0" image-rendering="auto">
  <!--Generated by ySVG 2.5-->
  <defs id="genericDefs"/>
  <g>
    <defs id="defs1">
      <linearGradient x1="890.653" gradientUnits="userSpaceOnUse" x2="1090.653" y1="738.4434" y2="863.4434" id="linearGradient1" spreadMethod="reflect">
        <stop stop-opacity="1" stop-color="rgb(232,238,247)" offset="0%"/>
        <stop stop-opacity="1" stop-color="rgb(183,201,227)" offset="100%"/>
      </linearGradient>
      <clipPath clipPathUnits="userSpaceOnUse" id="clipPath1">
        <path d="M0 0 L1060 0 L1060 1263 L0 1263 L0 0 Z"/>
      </clipPath>
      <clipPath clipPathUnits="userSpaceOnUse" id="clipPath2">
        <path d="M46 115 L1106 115 L1106 1378 L46 1378 L46 115 Z"/>
      </clipPath>
    </defs>
    <g fill="rgb(204,255,204)" text-rendering="geometricPrecision" shape-rendering="geometricPrecision" transform="matrix(1,0,0,1,-46,-115)" stroke="rgb(204,255,204)">
      <rect x="443.7925" y="130.0625" clip-path="url(#clipPath2)" width="200" rx="4" ry="4" height="125" stroke="none"/>
    </g>
    <g text-rendering="geometricPrecision" stroke-miterlimit="1.45" shape-rendering="geometricPrecision" transform="matrix(1,0,0,1,-46,-115)" stroke-linecap="butt">
      <rect x="443.7925" y="130.0625" clip-path="url(#clipPath2)" fill="none" width="200" rx="4" ry="4" height="125"/>
      <text x="525.775" xml:space="preserve" font-size="20px" y="187.8457" clip-path="url(#clipPath2)" stroke="none">GUI</text>
      <text x="521.9127" xml:space="preserve" font-size="20px" y="211.127" clip-path="url(#clipPath2)" stroke="none">core</text>
    </g>
    <g fill="url(#linearGradient1)" text-rendering="geometricPrecision" shape-rendering="geometricPrecision" transform="matrix(1,0,0,1,-46,-115)" stroke="url(#linearGradient1)">
      <path d="M890.653 738.4434 L1090.653 738.4434 L1090.653 847.8184 Q1040.653 816.5684 990.653 847.8184 Q940.653 879.0684 890.653 847.8184 Z" stroke="none" clip-path="url(#clipPath2)"/>
    </g>
    <g text-rendering="geometricPrecision" stroke-miterlimit="1.45" shape-rendering="geometricPrecision" transform="matrix(1,0,0,1,-46,-115)" stroke-linecap="butt">
      <path fill="none" d="M890.653 738.4434 L1090.653 738.4434 L1090.653 847.8184 Q1040.653 816.5684 990.653 847.8184 Q940.653 879.0684 890.653 847.8184 Z" clip-path="url(#clipPath2)"/>
      <text x="903.9635" xml:space="preserve" font-size="20px" y="807.8672" clip-path="url(#clipPath2)" stroke="none">specification.json</text>
    </g>
    <g fill="rgb(153,204,255)" text-rendering="geometricPrecision" shape-rendering="geometricPrecision" transform="matrix(1,0,0,1,-46,-115)" stroke="rgb(153,204,255)">
      <rect x="280.7466" y="322.7674" clip-path="url(#clipPath2)" width="526.0918" rx="4" ry="4" height="400.8374" stroke="none"/>
      <rect x="280.7466" y="322.7674" clip-path="url(#clipPath2)" fill="rgb(235,235,235)" width="526.0918" height="21.4609" stroke="none"/>
    </g>
    <g font-size="15px" stroke-linecap="butt" transform="matrix(1,0,0,1,-46,-115)" text-rendering="geometricPrecision" font-family="sans-serif" shape-rendering="geometricPrecision" stroke-miterlimit="1.45">
      <text x="687.8633" xml:space="preserve" y="338.6908" clip-path="url(#clipPath2)" stroke="none">Crawler Module</text>
      <rect x="280.7466" y="322.7674" clip-path="url(#clipPath2)" fill="none" width="526.0918" stroke-dasharray="6,2" rx="4" ry="4" height="400.8374"/>
    </g>
    <g fill="rgb(204,255,204)" text-rendering="geometricPrecision" shape-rendering="geometricPrecision" transform="matrix(1,0,0,1,-46,-115)" stroke="rgb(204,255,204)">
      <rect x="447.839" y="359.2284" clip-path="url(#clipPath2)" width="200" rx="4" ry="4" height="125" stroke="none"/>
    </g>
    <g text-rendering="geometricPrecision" stroke-miterlimit="1.45" shape-rendering="geometricPrecision" transform="matrix(1,0,0,1,-46,-115)" stroke-linecap="butt">
      <rect x="447.839" y="359.2284" clip-path="url(#clipPath2)" fill="none" width="200" rx="4" ry="4" height="125"/>
      <text x="460.2462" xml:space="preserve" font-size="20px" y="428.6522" clip-path="url(#clipPath2)" stroke="none">Crawl Setup View</text>
      <path fill="none" d="M543.7925 255.0791 L543.7925 314.7932" clip-path="url(#clipPath2)"/>
      <path d="M543.7925 322.7932 L548.7925 310.7932 L543.7925 313.7932 L538.7925 310.7932 Z" clip-path="url(#clipPath2)" stroke="none"/>
      <path fill="none" d="M647.8127 421.7284 L990.653 421.7284 L990.653 730.4044" clip-path="url(#clipPath2)"/>
      <path d="M990.653 738.4044 L995.653 726.4044 L990.653 729.4044 L985.653 726.4044 Z" clip-path="url(#clipPath2)" stroke="none"/>
    </g>
    <g fill="rgb(133,184,235)" text-rendering="geometricPrecision" shape-rendering="geometricPrecision" transform="matrix(1,0,0,1,-46,-115)" stroke="rgb(133,184,235)">
      <rect x="295.7466" y="532.1439" clip-path="url(#clipPath2)" width="496.0918" rx="4" ry="4" height="176.4609" stroke="none"/>
      <rect x="295.7466" y="532.1439" clip-path="url(#clipPath2)" fill="rgb(235,235,235)" width="496.0918" height="21.4609" stroke="none"/>
    </g>
    <g font-size="15px" stroke-linecap="butt" transform="matrix(1,0,0,1,-46,-115)" text-rendering="geometricPrecision" font-family="sans-serif" shape-rendering="geometricPrecision" stroke-miterlimit="1.45">
      <text x="666.0445" xml:space="preserve" y="548.0673" clip-path="url(#clipPath2)" stroke="none">Crawl Initializers</text>
      <rect x="295.7466" y="532.1439" clip-path="url(#clipPath2)" fill="none" width="496.0918" stroke-dasharray="6,2" rx="4" ry="4" height="176.4609"/>
    </g>
    <g fill="rgb(204,255,204)" text-rendering="geometricPrecision" shape-rendering="geometricPrecision" transform="matrix(1,0,0,1,-46,-115)" stroke="rgb(204,255,204)">
      <rect x="568.2398" y="568.6048" clip-path="url(#clipPath2)" width="200" rx="4" ry="4" height="125" stroke="none"/>
    </g>
    <g text-rendering="geometricPrecision" stroke-miterlimit="1.45" shape-rendering="geometricPrecision" transform="matrix(1,0,0,1,-46,-115)" stroke-linecap="butt">
      <rect x="568.2398" y="568.6048" clip-path="url(#clipPath2)" fill="none" width="200" rx="4" ry="4" height="125"/>
      <text x="642.1461" xml:space="preserve" font-size="20px" y="626.3881" clip-path="url(#clipPath2)" stroke="none">Local</text>
      <text x="590.9205" xml:space="preserve" font-size="20px" y="649.6693" clip-path="url(#clipPath2)" stroke="none">Crawl Initializer</text>
    </g>
    <g fill="rgb(204,255,204)" text-rendering="geometricPrecision" shape-rendering="geometricPrecision" transform="matrix(1,0,0,1,-46,-115)" stroke="rgb(204,255,204)">
      <rect x="315.7331" y="568.6048" clip-path="url(#clipPath2)" width="200" rx="4" ry="4" height="125" stroke="none"/>
    </g>
    <g text-rendering="geometricPrecision" stroke-miterlimit="1.45" shape-rendering="geometricPrecision" transform="matrix(1,0,0,1,-46,-115)" stroke-linecap="butt">
      <rect x="315.7331" y="568.6048" clip-path="url(#clipPath2)" fill="none" width="200" rx="4" ry="4" height="125"/>
      <text x="376.6999" xml:space="preserve" font-size="20px" y="626.3881" clip-path="url(#clipPath2)" stroke="none">Remote</text>
      <text x="338.4137" xml:space="preserve" font-size="20px" y="649.6693" clip-path="url(#clipPath2)" stroke="none">Crawl Initializer</text>
    </g>
    <g fill="rgb(238,238,238)" text-rendering="geometricPrecision" shape-rendering="geometricPrecision" transform="matrix(1,0,0,1,-46,-115)" stroke="rgb(238,238,238)">
      <rect x="319.4865" y="860.7067" clip-path="url(#clipPath2)" width="200" rx="4" ry="4" height="125" stroke="none"/>
    </g>
    <g text-rendering="geometricPrecision" stroke-miterlimit="1.45" stroke-dasharray="6,2" shape-rendering="geometricPrecision" transform="matrix(1,0,0,1,-46,-115)" stroke-linecap="butt">
      <rect x="319.4865" y="860.7067" clip-path="url(#clipPath2)" fill="none" width="200" rx="4" ry="4" height="125"/>
      <text x="339.6281" font-size="20px" y="930.1306" clip-path="url(#clipPath2)" stroke-dasharray="none" stroke="none" xml:space="preserve">Message Queue</text>
    </g>
    <g fill="rgb(238,238,238)" text-rendering="geometricPrecision" shape-rendering="geometricPrecision" transform="matrix(1,0,0,1,-46,-115)" stroke="rgb(238,238,238)">
      <rect x="555.7398" y="860.7067" clip-path="url(#clipPath2)" width="225" rx="4" ry="4" height="125" stroke="none"/>
    </g>
    <g text-rendering="geometricPrecision" stroke-miterlimit="1.45" stroke-dasharray="6,2" shape-rendering="geometricPrecision" transform="matrix(1,0,0,1,-46,-115)" stroke-linecap="butt">
      <rect x="555.7398" y="860.7067" clip-path="url(#clipPath2)" fill="none" width="225" rx="4" ry="4" height="125"/>
      <text x="562.3268" font-size="20px" y="930.1306" clip-path="url(#clipPath2)" stroke-dasharray="none" stroke="none" xml:space="preserve">OWS-scrapy-wrapper</text>
    </g>
    <g fill="rgb(238,238,238)" text-rendering="geometricPrecision" shape-rendering="geometricPrecision" transform="matrix(1,0,0,1,-46,-115)" stroke="rgb(238,238,238)">
      <rect x="61.9865" y="1112.976" clip-path="url(#clipPath2)" width="225" rx="4" ry="4" height="125" stroke="none"/>
    </g>
    <g text-rendering="geometricPrecision" stroke-miterlimit="1.45" stroke-dasharray="6,2" shape-rendering="geometricPrecision" transform="matrix(1,0,0,1,-46,-115)" stroke-linecap="butt">
      <rect x="61.9865" y="1112.976" clip-path="url(#clipPath2)" fill="none" width="225" rx="4" ry="4" height="125"/>
      <text x="111.0148" font-size="20px" y="1182.3998" clip-path="url(#clipPath2)" stroke-dasharray="none" stroke="none" xml:space="preserve">TaskListener</text>
    </g>
    <g fill="rgb(238,238,238)" text-rendering="geometricPrecision" shape-rendering="geometricPrecision" transform="matrix(1,0,0,1,-46,-115)" stroke="rgb(238,238,238)">
      <rect x="306.9865" y="1112.976" clip-path="url(#clipPath2)" width="225" rx="4" ry="4" height="125" stroke="none"/>
    </g>
    <g text-rendering="geometricPrecision" stroke-miterlimit="1.45" stroke-dasharray="6,2" shape-rendering="geometricPrecision" transform="matrix(1,0,0,1,-46,-115)" stroke-linecap="butt">
      <rect x="306.9865" y="1112.976" clip-path="url(#clipPath2)" fill="none" width="225" rx="4" ry="4" height="125"/>
      <text x="356.0148" font-size="20px" y="1182.3998" clip-path="url(#clipPath2)" stroke-dasharray="none" stroke="none" xml:space="preserve">TaskListener</text>
    </g>
    <g fill="rgb(238,238,238)" text-rendering="geometricPrecision" shape-rendering="geometricPrecision" transform="matrix(1,0,0,1,-46,-115)" stroke="rgb(238,238,238)">
      <rect x="551.9865" y="1112.976" clip-path="url(#clipPath2)" width="225" rx="4" ry="4" height="125" stroke="none"/>
    </g>
    <g text-rendering="geometricPrecision" stroke-miterlimit="1.45" stroke-dasharray="6,2" shape-rendering="geometricPrecision" transform="matrix(1,0,0,1,-46,-115)" stroke-linecap="butt">
      <rect x="551.9865" y="1112.976" clip-path="url(#clipPath2)" fill="none" width="225" rx="4" ry="4" height="125"/>
      <text x="601.0148" font-size="20px" y="1182.3998" clip-path="url(#clipPath2)" stroke-dasharray="none" stroke="none" xml:space="preserve">TaskListener</text>
    </g>
    <g fill="rgb(238,238,238)" text-rendering="geometricPrecision" shape-rendering="geometricPrecision" transform="matrix(1,0,0,1,-46,-115)" stroke="rgb(238,238,238)">
      <rect x="61.9865" y="1237.976" clip-path="url(#clipPath2)" width="225" rx="4" ry="4" height="125" stroke="none"/>
    </g>
    <g text-rendering="geometricPrecision" stroke-miterlimit="1.45" stroke-dasharray="6,2" shape-rendering="geometricPrecision" transform="matrix(1,0,0,1,-46,-115)" stroke-linecap="butt">
      <rect x="61.9865" y="1237.976" clip-path="url(#clipPath2)" fill="none" width="225" rx="4" ry="4" height="125"/>
      <text x="68.5734" font-size="20px" y="1307.3998" clip-path="url(#clipPath2)" stroke-dasharray="none" stroke="none" xml:space="preserve">OWS-scrapy-wrapper</text>
    </g>
    <g fill="rgb(238,238,238)" text-rendering="geometricPrecision" shape-rendering="geometricPrecision" transform="matrix(1,0,0,1,-46,-115)" stroke="rgb(238,238,238)">
      <rect x="306.9865" y="1237.976" clip-path="url(#clipPath2)" width="225" rx="4" ry="4" height="125" stroke="none"/>
    </g>
    <g text-rendering="geometricPrecision" stroke-miterlimit="1.45" stroke-dasharray="6,2" shape-rendering="geometricPrecision" transform="matrix(1,0,0,1,-46,-115)" stroke-linecap="butt">
      <rect x="306.9865" y="1237.976" clip-path="url(#clipPath2)" fill="none" width="225" rx="4" ry="4" height="125"/>
      <text x="313.5734" font-size="20px" y="1307.3998" clip-path="url(#clipPath2)" stroke-dasharray="none" stroke="none" xml:space="preserve">OWS-scrapy-wrapper</text>
    </g>
    <g fill="rgb(238,238,238)" text-rendering="geometricPrecision" shape-rendering="geometricPrecision" transform="matrix(1,0,0,1,-46,-115)" stroke="rgb(238,238,238)">
      <rect x="551.9865" y="1237.976" clip-path="url(#clipPath2)" width="225" rx="4" ry="4" height="125" stroke="none"/>
    </g>
    <g text-rendering="geometricPrecision" stroke-miterlimit="1.45" stroke-dasharray="6,2" shape-rendering="geometricPrecision" transform="matrix(1,0,0,1,-46,-115)" stroke-linecap="butt">
      <rect x="551.9865" y="1237.976" clip-path="url(#clipPath2)" fill="none" width="225" rx="4" ry="4" height="125"/>
      <text x="558.5734" font-size="20px" y="1307.3998" clip-path="url(#clipPath2)" stroke-dasharray="none" stroke="none" xml:space="preserve">OWS-scrapy-wrapper</text>
      <path fill="none" stroke-dasharray="none" d="M416.5363 693.6115 L418.5802 852.6797" clip-path="url(#clipPath2)"/>
      <path stroke-dasharray="none" d="M418.683 860.679 L423.5284 848.6157 L418.5674 851.6797 L413.5292 848.7443 Z" clip-path="url(#clipPath2)" stroke="none"/>
      <path fill="none" stroke-dasharray="none" d="M890.6502 765.5606 L444.2222 765.5606 L444.2222 852.6895" clip-path="url(#clipPath2)"/>
      <path stroke-dasharray="none" d="M444.2222 860.6895 L449.2222 848.6895 L444.2222 851.6895 L439.2222 848.6895 Z" clip-path="url(#clipPath2)" stroke="none"/>
      <path fill="none" stroke-dasharray="none" d="M668.2399 693.6115 L668.2399 852.679" clip-path="url(#clipPath2)"/>
      <path stroke-dasharray="none" d="M668.2399 860.679 L673.2399 848.679 L668.2399 851.679 L663.2399 848.679 Z" clip-path="url(#clipPath2)" stroke="none"/>
      <path fill="none" stroke-dasharray="none" d="M890.6676 800.9434 L705.1597 800.9434 L705.1597 852.6934" clip-path="url(#clipPath2)"/>
      <path stroke-dasharray="none" d="M705.1597 860.6934 L710.1597 848.6934 L705.1597 851.6934 L700.1597 848.6934 Z" clip-path="url(#clipPath2)" stroke="none"/>
      <path fill="none" stroke-dasharray="none" d="M358.8047 985.689 L240.7419 1107.2546" clip-path="url(#clipPath2)"/>
      <path stroke-dasharray="none" d="M235.1684 1112.9937 L247.1156 1107.8687 L241.4386 1106.5374 L239.9418 1100.9017 Z" clip-path="url(#clipPath2)" stroke="none"/>
      <path fill="none" stroke-dasharray="none" d="M419.4865 985.689 L419.4865 1104.9705" clip-path="url(#clipPath2)"/>
      <path stroke-dasharray="none" d="M419.4865 1112.9705 L424.4865 1100.9705 L419.4865 1103.9705 L414.4865 1100.9705 Z" clip-path="url(#clipPath2)" stroke="none"/>
      <path fill="none" stroke-dasharray="none" d="M480.1682 985.689 L598.231 1107.2546" clip-path="url(#clipPath2)"/>
      <path stroke-dasharray="none" d="M603.8045 1112.9935 L599.031 1100.9016 L597.5342 1106.5372 L591.8574 1107.8685 Z" clip-path="url(#clipPath2)" stroke="none"/>
    </g>
  </g>
</svg>
