<?xml version="1.0" encoding="UTF-8"?><svg xmlns="http://www.w3.org/2000/svg" xmlns:xlink="http://www.w3.org/1999/xlink" fill-opacity="1" color-rendering="auto" color-interpolation="auto" text-rendering="auto" stroke="black" stroke-linecap="square" width="1063" stroke-miterlimit="10" shape-rendering="auto" stroke-opacity="1" fill="black" stroke-dasharray="none" font-weight="normal" stroke-width="1" height="1368" font-family="'Dialog'" font-style="normal" stroke-linejoin="miter" font-size="12px" stroke-dashoffset="0" image-rendering="auto">
  <!--Generated by ySVG 2.5-->
  <defs id="genericDefs"/>
  <g>
    <defs id="defs1">
      <linearGradient x1="883.153" gradientUnits="userSpaceOnUse" x2="1098.153" y1="729.9434" y2="871.9434" id="linearGradient1" spreadMethod="reflect">
        <stop stop-opacity="1" stop-color="rgb(232,238,247)" offset="0%"/>
        <stop stop-opacity="1" stop-color="rgb(183,201,227)" offset="100%"/>
      </linearGradient>
      <clipPath clipPathUnits="userSpaceOnUse" id="clipPath1">
        <path d="M0 0 L1063 0 L1063 1368 L0 1368 L0 0 Z"/>
      </clipPath>
      <clipPath clipPathUnits="userSpaceOnUse" id="clipPath2">
        <path d="M51 36 L1114 36 L1114 1404 L51 1404 L51 36 Z"/>
      </clipPath>
    </defs>
    <g fill="white" text-rendering="geometricPrecision" shape-rendering="geometricPrecision" transform="translate(-51,-36)" stroke="white">
      <rect x="51" width="1063" height="1368" y="36" clip-path="url(#clipPath2)" stroke="none"/>
    </g>
    <g fill="rgb(204,255,204)" text-rendering="geometricPrecision" shape-rendering="geometricPrecision" transform="matrix(1,0,0,1,-51,-36)" stroke="rgb(204,255,204)">
      <rect x="440.339" y="51.25" clip-path="url(#clipPath2)" width="215" rx="4" ry="4" height="142" stroke="none"/>
    </g>
    <g text-rendering="geometricPrecision" stroke-miterlimit="1.45" shape-rendering="geometricPrecision" transform="matrix(1,0,0,1,-51,-36)" stroke-linecap="butt">
      <rect x="440.339" y="51.25" clip-path="url(#clipPath2)" fill="none" width="215" rx="4" ry="4" height="142"/>
      <text x="529.7677" font-size="20px" y="117.25" clip-path="url(#clipPath2)" font-family="'Eras Demi ITC'" stroke="none" xml:space="preserve">GUI</text>
      <text x="527.2872" font-size="20px" y="140.2285" clip-path="url(#clipPath2)" font-family="'Eras Demi ITC'" stroke="none" xml:space="preserve">core</text>
    </g>
    <g fill="url(#linearGradient1)" text-rendering="geometricPrecision" shape-rendering="geometricPrecision" transform="matrix(1,0,0,1,-51,-36)" stroke="url(#linearGradient1)">
      <path d="M883.153 729.9434 L1098.153 729.9434 L1098.153 854.1934 Q1044.403 818.6934 990.653 854.1934 Q936.903 889.6934 883.153 854.1934 Z" stroke="none" clip-path="url(#clipPath2)"/>
    </g>
    <g text-rendering="geometricPrecision" stroke-miterlimit="1.45" shape-rendering="geometricPrecision" transform="matrix(1,0,0,1,-51,-36)" stroke-linecap="butt">
      <path fill="none" d="M883.153 729.9434 L1098.153 729.9434 L1098.153 854.1934 Q1044.403 818.6934 990.653 854.1934 Q936.903 889.6934 883.153 854.1934 Z" clip-path="url(#clipPath2)"/>
      <text x="909.0416" font-size="20px" y="807.4326" clip-path="url(#clipPath2)" font-family="'Eras Demi ITC'" stroke="none" xml:space="preserve">specification.json</text>
    </g>
    <g fill="rgb(153,204,255)" text-rendering="geometricPrecision" shape-rendering="geometricPrecision" transform="matrix(1,0,0,1,-51,-36)" stroke="rgb(153,204,255)">
      <rect x="277" y="313.3519" clip-path="url(#clipPath2)" width="540" rx="4" ry="4" height="418.7529" stroke="none"/>
      <rect x="277" y="313.3519" clip-path="url(#clipPath2)" fill="rgb(235,235,235)" width="540" height="22.3765" stroke="none"/>
    </g>
    <g font-size="15px" stroke-linecap="butt" transform="matrix(1,0,0,1,-51,-36)" text-rendering="geometricPrecision" font-family="sans-serif" shape-rendering="geometricPrecision" stroke-miterlimit="1.45">
      <text x="709.9634" xml:space="preserve" y="330.4325" clip-path="url(#clipPath2)" stroke="none">Crawler Module</text>
      <rect x="277" y="313.3519" clip-path="url(#clipPath2)" fill="none" width="540" stroke-dasharray="6,2" rx="4" ry="4" height="418.7529"/>
    </g>
    <g fill="rgb(204,255,204)" text-rendering="geometricPrecision" shape-rendering="geometricPrecision" transform="matrix(1,0,0,1,-51,-36)" stroke="rgb(204,255,204)">
      <rect x="440.339" y="350.7284" clip-path="url(#clipPath2)" width="215" rx="4" ry="4" height="142" stroke="none"/>
    </g>
    <g text-rendering="geometricPrecision" stroke-miterlimit="1.45" shape-rendering="geometricPrecision" transform="matrix(1,0,0,1,-51,-36)" stroke-linecap="butt">
      <rect x="440.339" y="350.7284" clip-path="url(#clipPath2)" fill="none" width="215" rx="4" ry="4" height="142"/>
      <text x="464.4601" font-size="20px" y="428.2176" clip-path="url(#clipPath2)" font-family="'Eras Demi ITC'" stroke="none" xml:space="preserve">Crawl Setup View</text>
      <path fill="none" d="M547.6902 193.2821 L547.4554 305.3257" clip-path="url(#clipPath2)"/>
      <path d="M547.4387 313.3257 L552.4638 301.3362 L547.4575 304.3257 L542.4639 301.3152 Z" clip-path="url(#clipPath2)" stroke="none"/>
      <path fill="none" d="M655.3262 421.7284 L990.653 421.7284 L990.653 721.9794" clip-path="url(#clipPath2)"/>
      <path d="M990.653 729.9794 L995.653 717.9794 L990.653 720.9794 L985.653 717.9794 Z" clip-path="url(#clipPath2)" stroke="none"/>
    </g>
    <g fill="rgb(133,184,235)" text-rendering="geometricPrecision" shape-rendering="geometricPrecision" transform="matrix(1,0,0,1,-51,-36)" stroke="rgb(133,184,235)">
      <rect x="292" y="522.7284" clip-path="url(#clipPath2)" width="510" rx="4" ry="4" height="194.3765" stroke="none"/>
      <rect x="292" y="522.7284" clip-path="url(#clipPath2)" fill="rgb(235,235,235)" width="510" height="22.3765" stroke="none"/>
    </g>
    <g font-size="15px" stroke-linecap="butt" transform="matrix(1,0,0,1,-51,-36)" text-rendering="geometricPrecision" font-family="sans-serif" shape-rendering="geometricPrecision" stroke-miterlimit="1.45">
      <text x="690.8105" xml:space="preserve" y="539.809" clip-path="url(#clipPath2)" stroke="none">Crawl Initializers</text>
      <rect x="292" y="522.7284" clip-path="url(#clipPath2)" fill="none" width="510" stroke-dasharray="6,2" rx="4" ry="4" height="194.3765"/>
    </g>
    <g fill="rgb(204,255,204)" text-rendering="geometricPrecision" shape-rendering="geometricPrecision" transform="matrix(1,0,0,1,-51,-36)" stroke="rgb(204,255,204)">
      <rect x="572" y="560.1048" clip-path="url(#clipPath2)" width="215" rx="4" ry="4" height="142" stroke="none"/>
    </g>
    <g text-rendering="geometricPrecision" stroke-miterlimit="1.45" shape-rendering="geometricPrecision" transform="matrix(1,0,0,1,-51,-36)" stroke-linecap="butt">
      <rect x="572" y="560.1048" clip-path="url(#clipPath2)" fill="none" width="215" rx="4" ry="4" height="142"/>
      <text x="578.6699" font-size="20px" y="637.5941" clip-path="url(#clipPath2)" font-family="'Eras Demi ITC'" stroke="none" xml:space="preserve">Local Crawl Initializer</text>
    </g>
    <g fill="rgb(204,255,204)" text-rendering="geometricPrecision" shape-rendering="geometricPrecision" transform="matrix(1,0,0,1,-51,-36)" stroke="rgb(204,255,204)">
      <rect x="311.9865" y="560.1048" clip-path="url(#clipPath2)" width="215" rx="4" ry="4" height="142" stroke="none"/>
    </g>
    <g text-rendering="geometricPrecision" stroke-miterlimit="1.45" shape-rendering="geometricPrecision" transform="matrix(1,0,0,1,-51,-36)" stroke-linecap="butt">
      <rect x="311.9865" y="560.1048" clip-path="url(#clipPath2)" fill="none" width="215" rx="4" ry="4" height="142"/>
      <text x="341.5128" font-size="20px" y="626.1049" clip-path="url(#clipPath2)" font-family="'Eras Demi ITC'" stroke="none" xml:space="preserve">Message Queue </text>
      <text x="345.9122" font-size="20px" y="649.0834" clip-path="url(#clipPath2)" font-family="'Eras Demi ITC'" stroke="none" xml:space="preserve">Crawl Initializer</text>
    </g>
    <g fill="rgb(238,238,238)" text-rendering="geometricPrecision" shape-rendering="geometricPrecision" transform="matrix(1,0,0,1,-51,-36)" stroke="rgb(238,238,238)">
      <rect x="311.9865" y="852.2067" clip-path="url(#clipPath2)" width="215" rx="4" ry="4" height="142" stroke="none"/>
    </g>
    <g text-rendering="geometricPrecision" stroke-miterlimit="1.45" stroke-dasharray="6,2" shape-rendering="geometricPrecision" transform="matrix(1,0,0,1,-51,-36)" stroke-linecap="butt">
      <rect x="311.9865" y="852.2067" clip-path="url(#clipPath2)" fill="none" width="215" rx="4" ry="4" height="142"/>
      <text x="344.0128" font-size="20px" y="929.696" clip-path="url(#clipPath2)" font-family="'Eras Demi ITC'" stroke-dasharray="none" stroke="none" xml:space="preserve">Message Queue</text>
    </g>
    <g fill="rgb(238,238,238)" text-rendering="geometricPrecision" shape-rendering="geometricPrecision" transform="matrix(1,0,0,1,-51,-36)" stroke="rgb(238,238,238)">
      <rect x="572" y="852.2067" clip-path="url(#clipPath2)" width="215" rx="4" ry="4" height="142" stroke="none"/>
    </g>
    <g text-rendering="geometricPrecision" stroke-miterlimit="1.45" stroke-dasharray="6,2" shape-rendering="geometricPrecision" transform="matrix(1,0,0,1,-51,-36)" stroke-linecap="butt">
      <rect x="572" y="852.2067" clip-path="url(#clipPath2)" fill="none" width="215" rx="4" ry="4" height="142"/>
      <text x="579.749" font-size="20px" y="929.696" clip-path="url(#clipPath2)" font-family="'Eras Demi ITC'" stroke-dasharray="none" stroke="none" xml:space="preserve">OWS-scrapy-wrapper</text>
    </g>
    <g fill="rgb(238,238,238)" text-rendering="geometricPrecision" shape-rendering="geometricPrecision" transform="matrix(1,0,0,1,-51,-36)" stroke="rgb(238,238,238)">
      <rect x="66.9865" y="1104.476" clip-path="url(#clipPath2)" width="215" rx="4" ry="4" height="142" stroke="none"/>
    </g>
    <g text-rendering="geometricPrecision" stroke-miterlimit="1.45" stroke-dasharray="6,2" shape-rendering="geometricPrecision" transform="matrix(1,0,0,1,-51,-36)" stroke-linecap="butt">
      <rect x="66.9865" y="1104.476" clip-path="url(#clipPath2)" fill="none" width="215" rx="4" ry="4" height="142"/>
      <text x="115.5509" font-size="20px" y="1181.9652" clip-path="url(#clipPath2)" font-family="'Eras Demi ITC'" stroke-dasharray="none" stroke="none" xml:space="preserve">TaskListener</text>
    </g>
    <g fill="rgb(238,238,238)" text-rendering="geometricPrecision" shape-rendering="geometricPrecision" transform="matrix(1,0,0,1,-51,-36)" stroke="rgb(238,238,238)">
      <rect x="311.9865" y="1104.476" clip-path="url(#clipPath2)" width="215" rx="4" ry="4" height="142" stroke="none"/>
    </g>
    <g text-rendering="geometricPrecision" stroke-miterlimit="1.45" stroke-dasharray="6,2" shape-rendering="geometricPrecision" transform="matrix(1,0,0,1,-51,-36)" stroke-linecap="butt">
      <rect x="311.9865" y="1104.476" clip-path="url(#clipPath2)" fill="none" width="215" rx="4" ry="4" height="142"/>
      <text x="360.5509" font-size="20px" y="1181.9652" clip-path="url(#clipPath2)" font-family="'Eras Demi ITC'" stroke-dasharray="none" stroke="none" xml:space="preserve">TaskListener</text>
    </g>
    <g fill="rgb(238,238,238)" text-rendering="geometricPrecision" shape-rendering="geometricPrecision" transform="matrix(1,0,0,1,-51,-36)" stroke="rgb(238,238,238)">
      <rect x="556.9865" y="1104.476" clip-path="url(#clipPath2)" width="215" rx="4" ry="4" height="142" stroke="none"/>
    </g>
    <g text-rendering="geometricPrecision" stroke-miterlimit="1.45" stroke-dasharray="6,2" shape-rendering="geometricPrecision" transform="matrix(1,0,0,1,-51,-36)" stroke-linecap="butt">
      <rect x="556.9865" y="1104.476" clip-path="url(#clipPath2)" fill="none" width="215" rx="4" ry="4" height="142"/>
      <text x="605.5509" font-size="20px" y="1181.9652" clip-path="url(#clipPath2)" font-family="'Eras Demi ITC'" stroke-dasharray="none" stroke="none" xml:space="preserve">TaskListener</text>
    </g>
    <g fill="rgb(238,238,238)" text-rendering="geometricPrecision" shape-rendering="geometricPrecision" transform="matrix(1,0,0,1,-51,-36)" stroke="rgb(238,238,238)">
      <rect x="66.9865" y="1246.476" clip-path="url(#clipPath2)" width="215" rx="4" ry="4" height="142" stroke="none"/>
    </g>
    <g text-rendering="geometricPrecision" stroke-miterlimit="1.45" stroke-dasharray="6,2" shape-rendering="geometricPrecision" transform="matrix(1,0,0,1,-51,-36)" stroke-linecap="butt">
      <rect x="66.9865" y="1246.476" clip-path="url(#clipPath2)" fill="none" width="215" rx="4" ry="4" height="142"/>
      <text x="74.7355" font-size="20px" y="1323.9652" clip-path="url(#clipPath2)" font-family="'Eras Demi ITC'" stroke-dasharray="none" stroke="none" xml:space="preserve">OWS-scrapy-wrapper</text>
    </g>
    <g fill="rgb(238,238,238)" text-rendering="geometricPrecision" shape-rendering="geometricPrecision" transform="matrix(1,0,0,1,-51,-36)" stroke="rgb(238,238,238)">
      <rect x="311.9865" y="1246.476" clip-path="url(#clipPath2)" width="215" rx="4" ry="4" height="142" stroke="none"/>
    </g>
    <g text-rendering="geometricPrecision" stroke-miterlimit="1.45" stroke-dasharray="6,2" shape-rendering="geometricPrecision" transform="matrix(1,0,0,1,-51,-36)" stroke-linecap="butt">
      <rect x="311.9865" y="1246.476" clip-path="url(#clipPath2)" fill="none" width="215" rx="4" ry="4" height="142"/>
      <text x="319.7355" font-size="20px" y="1323.9652" clip-path="url(#clipPath2)" font-family="'Eras Demi ITC'" stroke-dasharray="none" stroke="none" xml:space="preserve">OWS-scrapy-wrapper</text>
    </g>
    <g fill="rgb(238,238,238)" text-rendering="geometricPrecision" shape-rendering="geometricPrecision" transform="matrix(1,0,0,1,-51,-36)" stroke="rgb(238,238,238)">
      <rect x="556.9865" y="1246.476" clip-path="url(#clipPath2)" width="215" rx="4" ry="4" height="142" stroke="none"/>
    </g>
    <g text-rendering="geometricPrecision" stroke-miterlimit="1.45" stroke-dasharray="6,2" shape-rendering="geometricPrecision" transform="matrix(1,0,0,1,-51,-36)" stroke-linecap="butt">
      <rect x="556.9865" y="1246.476" clip-path="url(#clipPath2)" fill="none" width="215" rx="4" ry="4" height="142"/>
      <text x="564.7355" font-size="20px" y="1323.9652" clip-path="url(#clipPath2)" font-family="'Eras Demi ITC'" stroke-dasharray="none" stroke="none" xml:space="preserve">OWS-scrapy-wrapper</text>
      <path fill="none" stroke-dasharray="none" d="M419.4865 702.0978 L419.4865 844.1938" clip-path="url(#clipPath2)"/>
      <path stroke-dasharray="none" d="M419.4865 852.1938 L424.4865 840.1938 L419.4865 843.1938 L414.4865 840.1938 Z" clip-path="url(#clipPath2)" stroke="none"/>
      <path fill="none" stroke-dasharray="none" d="M883.1282 765.5606 L444.2222 765.5606 L444.2222 844.2313" clip-path="url(#clipPath2)"/>
      <path stroke-dasharray="none" d="M444.2222 852.2313 L449.2222 840.2313 L444.2222 843.2313 L439.2222 840.2313 Z" clip-path="url(#clipPath2)" stroke="none"/>
      <path fill="none" stroke-dasharray="none" d="M679.5 702.0978 L679.5 844.1938" clip-path="url(#clipPath2)"/>
      <path stroke-dasharray="none" d="M679.5 852.1938 L684.5 840.1938 L679.5 843.1938 L674.5 840.1938 Z" clip-path="url(#clipPath2)" stroke="none"/>
      <path fill="none" stroke-dasharray="none" d="M883.14 800.9434 L705.1597 800.9434 L705.1597 844.2205" clip-path="url(#clipPath2)"/>
      <path stroke-dasharray="none" d="M705.1597 852.2205 L710.1597 840.2205 L705.1597 843.2205 L700.1597 840.2205 Z" clip-path="url(#clipPath2)" stroke="none"/>
      <path fill="none" stroke-dasharray="none" d="M350.5503 994.1882 L249.0284 1098.7224" clip-path="url(#clipPath2)"/>
      <path stroke-dasharray="none" d="M243.4548 1104.4613 L255.402 1099.3364 L249.7251 1098.005 L248.2284 1092.3694 Z" clip-path="url(#clipPath2)" stroke="none"/>
      <path fill="none" stroke-dasharray="none" d="M419.4865 994.1882 L419.4865 1096.4392" clip-path="url(#clipPath2)"/>
      <path stroke-dasharray="none" d="M419.4865 1104.4392 L424.4865 1092.4392 L419.4865 1095.4392 L414.4865 1092.4392 Z" clip-path="url(#clipPath2)" stroke="none"/>
      <path fill="none" stroke-dasharray="none" d="M488.4226 994.1882 L589.9445 1098.7224" clip-path="url(#clipPath2)"/>
      <path stroke-dasharray="none" d="M595.5181 1104.4613 L590.7445 1092.3694 L589.2478 1098.005 L583.5709 1099.3364 Z" clip-path="url(#clipPath2)" stroke="none"/>
    </g>
  </g>
</svg>
