<?xml version="1.0" encoding="UTF-8"?><svg xmlns="http://www.w3.org/2000/svg" xmlns:xlink="http://www.w3.org/1999/xlink" fill-opacity="1" color-rendering="auto" color-interpolation="auto" text-rendering="auto" stroke="black" stroke-linecap="square" width="1189" stroke-miterlimit="10" shape-rendering="auto" stroke-opacity="1" fill="black" stroke-dasharray="none" font-weight="normal" stroke-width="1" height="955" font-family="'Dialog'" font-style="normal" stroke-linejoin="miter" font-size="12px" stroke-dashoffset="0" image-rendering="auto">
  <!--Generated by ySVG 2.5-->
  <defs id="genericDefs"/>
  <g>
    <g fill="white" text-rendering="geometricPrecision" shape-rendering="geometricPrecision" transform="translate(15,67)" stroke="white">
      <rect x="-15" width="1189" height="955" y="-67" clip-path="url(#clipPath2)" stroke="none"/>
    </g>
    <g fill="rgb(204,255,204)" text-rendering="geometricPrecision" shape-rendering="geometricPrecision" transform="matrix(1,0,0,1,15,67)" stroke="rgb(204,255,204)">
      <rect x="0" y="-51.375" clip-path="url(#clipPath2)" width="215" rx="4" ry="4" height="142" stroke="none"/>
    </g>
    <g text-rendering="geometricPrecision" stroke-miterlimit="1.45" shape-rendering="geometricPrecision" transform="matrix(1,0,0,1,15,67)" stroke-linecap="butt">
      <rect x="0" y="-51.375" clip-path="url(#clipPath2)" fill="none" width="215" rx="4" ry="4" height="142"/>
      <text x="89.4287" font-size="20px" y="26.1143" clip-path="url(#clipPath2)" font-family="'Eras Demi ITC'" stroke="none" xml:space="preserve">GUI</text>
    </g>
    <g fill="rgb(204,255,204)" text-rendering="geometricPrecision" shape-rendering="geometricPrecision" transform="matrix(1,0,0,1,15,67)" stroke="rgb(204,255,204)">
      <rect x="530" y="-51.375" clip-path="url(#clipPath2)" width="215" rx="4" ry="4" height="142" stroke="none"/>
    </g>
    <g text-rendering="geometricPrecision" stroke-miterlimit="1.45" shape-rendering="geometricPrecision" transform="matrix(1,0,0,1,15,67)" stroke-linecap="butt">
      <rect x="530" y="-51.375" clip-path="url(#clipPath2)" fill="none" width="215" rx="4" ry="4" height="142"/>
      <text x="561.9043" font-size="20px" y="26.1143" clip-path="url(#clipPath2)" font-family="'Eras Demi ITC'" stroke="none" xml:space="preserve">scrapy_wrapper</text>
    </g>
    <g fill="rgb(153,204,255)" text-rendering="geometricPrecision" shape-rendering="geometricPrecision" transform="matrix(1,0,0,1,15,67)" stroke="rgb(153,204,255)">
      <rect x="327.5" y="162" clip-path="url(#clipPath2)" width="619.5" rx="4" ry="4" height="194.3765" stroke="none"/>
      <rect x="327.5" y="162" clip-path="url(#clipPath2)" fill="rgb(235,235,235)" width="619.5" height="22.3765" stroke="none"/>
    </g>
    <g font-size="15px" stroke-linecap="butt" transform="matrix(1,0,0,1,15,67)" text-rendering="geometricPrecision" font-family="sans-serif" shape-rendering="geometricPrecision" stroke-miterlimit="1.45">
      <text x="900.8203" xml:space="preserve" y="179.0806" clip-path="url(#clipPath2)" stroke="none">Parser</text>
      <rect x="327.5" y="162" clip-path="url(#clipPath2)" fill="none" width="619.5" stroke-dasharray="6,2" rx="4" ry="4" height="194.3765"/>
    </g>
    <g fill="rgb(204,255,204)" text-rendering="geometricPrecision" shape-rendering="geometricPrecision" transform="matrix(1,0,0,1,15,67)" stroke="rgb(204,255,204)">
      <rect x="716" y="199.3765" clip-path="url(#clipPath2)" width="215" rx="4" ry="4" height="142" stroke="none"/>
    </g>
    <g text-rendering="geometricPrecision" stroke-miterlimit="1.45" shape-rendering="geometricPrecision" transform="matrix(1,0,0,1,15,67)" stroke-linecap="butt">
      <rect x="716" y="199.3765" clip-path="url(#clipPath2)" fill="none" width="215" rx="4" ry="4" height="142"/>
      <text x="742.0791" font-size="20px" y="276.8657" clip-path="url(#clipPath2)" font-family="'Eras Demi ITC'" stroke="none" xml:space="preserve">Paragraph Parser</text>
    </g>
    <g fill="silver" text-rendering="geometricPrecision" shape-rendering="geometricPrecision" transform="matrix(1,0,0,1,15,67)" stroke="silver">
      <rect x="343.5" y="199.3765" clip-path="url(#clipPath2)" width="215" rx="4" ry="4" height="142" stroke="none"/>
    </g>
    <g text-rendering="geometricPrecision" stroke-miterlimit="1.45" shape-rendering="geometricPrecision" transform="matrix(1,0,0,1,15,67)" stroke-linecap="butt">
      <rect x="343.5" y="199.3765" clip-path="url(#clipPath2)" fill="none" width="215" rx="4" ry="4" height="142"/>
      <text x="357.5088" font-size="20px" y="276.8657" clip-path="url(#clipPath2)" font-family="'Eras Demi ITC'" stroke="none" xml:space="preserve">Raw Content Parser</text>
      <path fill="none" d="M637.5 90.625 L637.5 153.9651" clip-path="url(#clipPath2)"/>
      <path d="M637.5 161.9651 L642.5 149.9651 L637.5 152.9651 L632.5 149.9651 Z" clip-path="url(#clipPath2)" stroke="none"/>
    </g>
    <g fill="rgb(153,204,255)" text-rendering="geometricPrecision" shape-rendering="geometricPrecision" transform="matrix(1,0,0,1,15,67)" stroke="rgb(153,204,255)">
      <rect x="116.25" y="427.7515" clip-path="url(#clipPath2)" width="1042" rx="4" ry="4" height="194.3765" stroke="none"/>
      <rect x="116.25" y="427.7515" clip-path="url(#clipPath2)" fill="rgb(235,235,235)" width="1042" height="22.3765" stroke="none"/>
    </g>
    <g font-size="15px" stroke-linecap="butt" transform="matrix(1,0,0,1,15,67)" text-rendering="geometricPrecision" font-family="sans-serif" shape-rendering="geometricPrecision" stroke-miterlimit="1.45">
      <text x="1102.8784" xml:space="preserve" y="444.832" clip-path="url(#clipPath2)" stroke="none">Pipeline</text>
      <rect x="116.25" y="427.7515" clip-path="url(#clipPath2)" fill="none" width="1042" stroke-dasharray="6,2" rx="4" ry="4" height="194.3765"/>
    </g>
    <g fill="rgb(204,255,204)" text-rendering="geometricPrecision" shape-rendering="geometricPrecision" transform="matrix(1,0,0,1,15,67)" stroke="rgb(204,255,204)">
      <rect x="662.25" y="465.1279" clip-path="url(#clipPath2)" width="215" rx="4" ry="4" height="142" stroke="none"/>
    </g>
    <g text-rendering="geometricPrecision" stroke-miterlimit="1.45" shape-rendering="geometricPrecision" transform="matrix(1,0,0,1,15,67)" stroke-linecap="butt">
      <rect x="662.25" y="465.1279" clip-path="url(#clipPath2)" fill="none" width="215" rx="4" ry="4" height="142"/>
      <text x="672.0596" font-size="18px" y="541.9683" clip-path="url(#clipPath2)" font-family="'Eras Demi ITC'" stroke="none" xml:space="preserve">Paragraph2Workspace</text>
    </g>
    <g fill="silver" text-rendering="geometricPrecision" shape-rendering="geometricPrecision" transform="matrix(1,0,0,1,15,67)" stroke="silver">
      <rect x="927.25" y="465.1279" clip-path="url(#clipPath2)" width="215" rx="4" ry="4" height="142" stroke="none"/>
    </g>
    <g text-rendering="geometricPrecision" stroke-miterlimit="1.45" shape-rendering="geometricPrecision" transform="matrix(1,0,0,1,15,67)" stroke-linecap="butt">
      <rect x="927.25" y="465.1279" clip-path="url(#clipPath2)" fill="none" width="215" rx="4" ry="4" height="142"/>
      <text x="960.0967" font-size="20px" y="542.6172" clip-path="url(#clipPath2)" font-family="'Eras Demi ITC'" stroke="none" xml:space="preserve">Paragraph2SQL</text>
    </g>
    <g fill="silver" text-rendering="geometricPrecision" shape-rendering="geometricPrecision" transform="matrix(1,0,0,1,15,67)" stroke="silver">
      <rect x="132.25" y="465.1279" clip-path="url(#clipPath2)" width="215" rx="4" ry="4" height="142" stroke="none"/>
    </g>
    <g text-rendering="geometricPrecision" stroke-miterlimit="1.45" shape-rendering="geometricPrecision" transform="matrix(1,0,0,1,15,67)" stroke-linecap="butt">
      <rect x="132.25" y="465.1279" clip-path="url(#clipPath2)" fill="none" width="215" rx="4" ry="4" height="142"/>
      <text x="185.1553" font-size="20px" y="542.6172" clip-path="url(#clipPath2)" font-family="'Eras Demi ITC'" stroke="none" xml:space="preserve">Raw2Cloud</text>
    </g>
    <g fill="silver" text-rendering="geometricPrecision" shape-rendering="geometricPrecision" transform="matrix(1,0,0,1,15,67)" stroke="silver">
      <rect x="397.25" y="465.1279" clip-path="url(#clipPath2)" width="215" rx="4" ry="4" height="142" stroke="none"/>
    </g>
    <g text-rendering="geometricPrecision" stroke-miterlimit="1.45" shape-rendering="geometricPrecision" transform="matrix(1,0,0,1,15,67)" stroke-linecap="butt">
      <rect x="397.25" y="465.1279" clip-path="url(#clipPath2)" fill="none" width="215" rx="4" ry="4" height="142"/>
      <text x="425.1406" font-size="20px" y="542.6172" clip-path="url(#clipPath2)" font-family="'Eras Demi ITC'" stroke="none" xml:space="preserve">Raw2Workspace</text>
    </g>
    <g fill="url(#linearGradient1)" text-rendering="geometricPrecision" shape-rendering="geometricPrecision" transform="matrix(1,0,0,1,15,67)" stroke="url(#linearGradient1)">
      <path d="M265 -51.375 L480 -51.375 L480 72.875 Q426.25 37.375 372.5 72.875 Q318.75 108.375 265 72.875 Z" stroke="none" clip-path="url(#clipPath2)"/>
    </g>
    <g text-rendering="geometricPrecision" stroke-miterlimit="1.45" shape-rendering="geometricPrecision" transform="matrix(1,0,0,1,15,67)" stroke-linecap="butt">
      <path fill="none" d="M265 -51.375 L480 -51.375 L480 72.875 Q426.25 37.375 372.5 72.875 Q318.75 108.375 265 72.875 Z" clip-path="url(#clipPath2)"/>
      <text x="290.8887" font-size="20px" y="26.1143" clip-path="url(#clipPath2)" font-family="'Eras Demi ITC'" stroke="none" xml:space="preserve">specification.json</text>
    </g>
    <g text-rendering="geometricPrecision" stroke-miterlimit="1.45" shape-rendering="geometricPrecision" transform="matrix(1,0,0,1,15,67)" stroke-linecap="butt">
      <path fill="none" d="M769.75 341.3765 L769.75 457.0977" clip-path="url(#clipPath2)"/>
      <path d="M769.75 465.0977 L774.75 453.0977 L769.75 456.0977 L764.75 453.0977 Z" clip-path="url(#clipPath2)" stroke="none"/>
      <path fill="none" d="M877.25 341.3765 L877.25 371.8765 L1034.75 412.2515 L1034.75 457.1021" clip-path="url(#clipPath2)"/>
      <path d="M1034.75 465.1021 L1039.75 453.1021 L1034.75 456.1021 L1029.75 453.1021 Z" clip-path="url(#clipPath2)" stroke="none"/>
      <path fill="none" d="M397.25 341.3765 L397.25 371.8765 L239.75 412.2515 L239.75 457.1021" clip-path="url(#clipPath2)"/>
      <path d="M239.75 465.1021 L244.75 453.1021 L239.75 456.1021 L234.75 453.1021 Z" clip-path="url(#clipPath2)" stroke="none"/>
      <path fill="none" d="M504.75 341.3765 L504.75 457.0977" clip-path="url(#clipPath2)"/>
      <path d="M504.75 465.0977 L509.75 453.0977 L504.75 456.0977 L499.75 453.0977 Z" clip-path="url(#clipPath2)" stroke="none"/>
      <path fill="none" d="M215 19.625 L256.9512 19.625" clip-path="url(#clipPath2)"/>
      <path d="M264.9512 19.625 L252.9512 14.625 L255.9512 19.625 L252.9512 24.625 Z" clip-path="url(#clipPath2)" stroke="none"/>
      <path fill="none" d="M480 19.625 L521.9512 19.625" clip-path="url(#clipPath2)"/>
      <path d="M529.9512 19.625 L517.9512 14.625 L520.9512 19.625 L517.9512 24.625 Z" clip-path="url(#clipPath2)" stroke="none"/>
    </g>
    <g fill="rgb(153,204,255)" text-rendering="geometricPrecision" shape-rendering="geometricPrecision" transform="matrix(1,0,0,1,15,67)" stroke="rgb(153,204,255)">
      <rect x="116.25" y="678.5029" clip-path="url(#clipPath2)" width="1042" rx="4" ry="4" height="194.3765" stroke="none"/>
      <rect x="116.25" y="678.5029" clip-path="url(#clipPath2)" fill="rgb(235,235,235)" width="1042" height="22.3765" stroke="none"/>
    </g>
    <g font-size="15px" stroke-linecap="butt" transform="matrix(1,0,0,1,15,67)" text-rendering="geometricPrecision" font-family="sans-serif" shape-rendering="geometricPrecision" stroke-miterlimit="1.45">
      <text x="1097.8833" xml:space="preserve" y="695.5835" clip-path="url(#clipPath2)" stroke="none">Interface</text>
      <rect x="116.25" y="678.5029" clip-path="url(#clipPath2)" fill="none" width="1042" stroke-dasharray="6,2" rx="4" ry="4" height="194.3765"/>
    </g>
    <g fill="rgb(204,255,204)" text-rendering="geometricPrecision" shape-rendering="geometricPrecision" transform="matrix(1,0,0,1,15,67)" stroke="rgb(204,255,204)">
      <rect x="529.75" y="715.8794" clip-path="url(#clipPath2)" width="215" rx="4" ry="4" height="142" stroke="none"/>
    </g>
    <g text-rendering="geometricPrecision" stroke-miterlimit="1.45" shape-rendering="geometricPrecision" transform="matrix(1,0,0,1,15,67)" stroke-linecap="butt">
      <rect x="529.75" y="715.8794" clip-path="url(#clipPath2)" fill="none" width="215" rx="4" ry="4" height="142"/>
      <text x="580.4238" font-size="20px" y="793.3687" clip-path="url(#clipPath2)" font-family="'Eras Demi ITC'" stroke="none" xml:space="preserve">filemanager</text>
    </g>
    <g text-rendering="geometricPrecision" shape-rendering="geometricPrecision" transform="matrix(1.8917,0,0,1.9912,1012.625,806.4761)">
      <g clip-path="url(#clipPath3)">
        <svg xml:space="preserve" opacity="1" writing-mode="lr-tb" stop-color="rgb(0, 0, 0)" shape-rendering="auto" glyph-orientation-horizontal="0deg" color-profile="auto" lighting-color="rgb(255, 255, 255)" color="rgb(0, 0, 0)" font-weight="400" alignment-baseline="auto" font-style="normal" version="1.1" color-interpolation-filters="linearrgb" text-anchor="start" stroke-linecap="butt" color-interpolation="srgb" font-variant="normal" word-spacing="normal" fill-opacity="1" text-rendering="auto" clip-path="none" text-decoration="none" letter-spacing="normal" viewBox="0 0 40 48" glyph-orientation-vertical="auto" display="inline" font-size-adjust="none" overflow="hidden" fill="rgb(0, 0, 0)" font-stretch="normal" stroke-dasharray="none" stroke-miterlimit="4" stop-opacity="1" color-rendering="auto" font-size="12" pointer-events="visiblepainted" mask="none" direction="ltr" baseline-shift="baseline" enable-background="new 0 0 40 48" fill-rule="nonzero" image-rendering="auto" stroke-dashoffset="0" width="40px" marker-end="none" clip="auto" cursor="auto" stroke="none" filter="none" visibility="visible" kerning="auto" stroke-width="1" font-family="&quot;Arial&quot;,&quot;Helvetica&quot;,sans-serif" flood-opacity="1" clip-rule="nonzero" src="none" height="48px" unicode-bidi="normal" stroke-linejoin="miter" stroke-opacity="1" flood-color="rgb(0, 0, 0)" dominant-baseline="auto" marker-start="none" x="0px" marker-mid="none" y="0px">
<defs>
<linearGradient x1="265" gradientUnits="userSpaceOnUse" x2="480" y1="-51.375" y2="90.625" id="linearGradient1" spreadMethod="reflect"><stop stop-opacity="1" stop-color="rgb(232,238,247)" offset="0%"/><stop stop-opacity="1" stop-color="rgb(183,201,227)" offset="100%"/></linearGradient><linearGradient x1="139.5" gradientUnits="userSpaceOnUse" x2="340" y1="735.1011" y2="838.6577" id="linearGradient2" spreadMethod="reflect"><stop stop-opacity="1" stop-color="rgb(221,221,221)" offset="0%"/><stop stop-opacity="1" stop-color="rgb(187,187,187)" offset="100%"/></linearGradient><clipPath clipPathUnits="userSpaceOnUse" id="clipPath1"><path d="M0 0 L1189 0 L1189 955 L0 955 L0 0 Z"/></clipPath><clipPath clipPathUnits="userSpaceOnUse" id="clipPath2"><path d="M-15 -67 L1174 -67 L1174 888 L-15 888 L-15 -67 Z"/></clipPath><clipPath clipPathUnits="userSpaceOnUse" id="clipPath3"><path d="M-535.2933 -405.0223 L93.2353 -405.0223 L93.2353 74.5905 L-535.2933 74.5905 L-535.2933 -405.0223 Z"/></clipPath></defs>
<linearGradient gradientTransform="matrix(1 0 0 1 -370.2002 -614.5742)" x1="370.2002" x2="409.4502" gradientUnits="userSpaceOnUse" y1="655.0938" y2="655.0938" id="svg1.SVGID_1_">
	<stop offset="0" style="stop-color:#4D4D4D"/>
	<stop offset="0.0558" style="stop-color:#5F5F5F"/>
	<stop offset="0.2103" style="stop-color:#8D8D8D"/>
	<stop offset="0.3479" style="stop-color:#AEAEAE"/>
	<stop offset="0.4623" style="stop-color:#C2C2C2"/>
	<stop offset="0.5394" style="stop-color:#C9C9C9"/>
	<stop offset="0.6247" style="stop-color:#C5C5C5"/>
	<stop offset="0.7072" style="stop-color:#BABABA"/>
	<stop offset="0.7885" style="stop-color:#A6A6A6"/>
	<stop offset="0.869" style="stop-color:#8B8B8B"/>
	<stop offset="0.9484" style="stop-color:#686868"/>
	<stop offset="1" style="stop-color:#4D4D4D"/>
</linearGradient>
<path fill="url(#svg1.SVGID_1_)" d="M19.625,37.613C8.787,37.613,0,35.738,0,33.425v10c0,2.313,8.787,4.188,19.625,4.188  c10.839,0,19.625-1.875,19.625-4.188v-10C39.25,35.738,30.464,37.613,19.625,37.613z"/>
<linearGradient gradientTransform="matrix(1 0 0 1 -370.2002 -614.5742)" x1="370.2002" x2="409.4502" gradientUnits="userSpaceOnUse" y1="649.0938" y2="649.0938" id="svg1.SVGID_2_">
	<stop offset="0" style="stop-color:#B3B3B3"/>
	<stop offset="0.0171" style="stop-color:#B6B6B6"/>
	<stop offset="0.235" style="stop-color:#D7D7D7"/>
	<stop offset="0.4168" style="stop-color:#EBEBEB"/>
	<stop offset="0.5394" style="stop-color:#F2F2F2"/>
	<stop offset="0.6579" style="stop-color:#EEEEEE"/>
	<stop offset="0.7724" style="stop-color:#E3E3E3"/>
	<stop offset="0.8853" style="stop-color:#CFCFCF"/>
	<stop offset="0.9965" style="stop-color:#B4B4B4"/>
	<stop offset="1" style="stop-color:#B3B3B3"/>
</linearGradient>
<path fill="url(#svg1.SVGID_2_)" d="M19.625,37.613c10.839,0,19.625-1.875,19.625-4.188l-1.229-2c0,2.168-8.235,3.927-18.396,3.927  c-9.481,0-17.396-1.959-18.396-3.927l-1.229,2C0,35.738,8.787,37.613,19.625,37.613z"/>
<linearGradient gradientTransform="matrix(1 0 0 1 -370.2002 -614.5742)" x1="371.4297" x2="408.2217" gradientUnits="userSpaceOnUse" y1="646" y2="646" id="svg1.SVGID_3_">
	<stop offset="0" style="stop-color:#C9C9C9"/>
	<stop offset="1" style="stop-color:#808080"/>
</linearGradient>
<ellipse rx="18.396" fill="url(#svg1.SVGID_3_)" ry="3.926" cx="19.625" cy="31.425"/>
<linearGradient gradientTransform="matrix(1 0 0 1 -370.2002 -614.5742)" x1="370.2002" x2="409.4502" gradientUnits="userSpaceOnUse" y1="641.0938" y2="641.0938" id="svg1.SVGID_4_">
	<stop offset="0" style="stop-color:#4D4D4D"/>
	<stop offset="0.0558" style="stop-color:#5F5F5F"/>
	<stop offset="0.2103" style="stop-color:#8D8D8D"/>
	<stop offset="0.3479" style="stop-color:#AEAEAE"/>
	<stop offset="0.4623" style="stop-color:#C2C2C2"/>
	<stop offset="0.5394" style="stop-color:#C9C9C9"/>
	<stop offset="0.6247" style="stop-color:#C5C5C5"/>
	<stop offset="0.7072" style="stop-color:#BABABA"/>
	<stop offset="0.7885" style="stop-color:#A6A6A6"/>
	<stop offset="0.869" style="stop-color:#8B8B8B"/>
	<stop offset="0.9484" style="stop-color:#686868"/>
	<stop offset="1" style="stop-color:#4D4D4D"/>
</linearGradient>
<path fill="url(#svg1.SVGID_4_)" d="M19.625,23.613C8.787,23.613,0,21.738,0,19.425v10c0,2.313,8.787,4.188,19.625,4.188  c10.839,0,19.625-1.875,19.625-4.188v-10C39.25,21.738,30.464,23.613,19.625,23.613z"/>
<linearGradient gradientTransform="matrix(1 0 0 1 -370.2002 -614.5742)" x1="370.2002" x2="409.4502" gradientUnits="userSpaceOnUse" y1="635.0938" y2="635.0938" id="svg1.SVGID_5_">
	<stop offset="0" style="stop-color:#B3B3B3"/>
	<stop offset="0.0171" style="stop-color:#B6B6B6"/>
	<stop offset="0.235" style="stop-color:#D7D7D7"/>
	<stop offset="0.4168" style="stop-color:#EBEBEB"/>
	<stop offset="0.5394" style="stop-color:#F2F2F2"/>
	<stop offset="0.6579" style="stop-color:#EEEEEE"/>
	<stop offset="0.7724" style="stop-color:#E3E3E3"/>
	<stop offset="0.8853" style="stop-color:#CFCFCF"/>
	<stop offset="0.9965" style="stop-color:#B4B4B4"/>
	<stop offset="1" style="stop-color:#B3B3B3"/>
</linearGradient>
<path fill="url(#svg1.SVGID_5_)" d="M19.625,23.613c10.839,0,19.625-1.875,19.625-4.188l-1.229-2c0,2.168-8.235,3.926-18.396,3.926  c-9.481,0-17.396-1.959-18.396-3.926l-1.229,2C0,21.738,8.787,23.613,19.625,23.613z"/>
<linearGradient gradientTransform="matrix(1 0 0 1 -370.2002 -614.5742)" x1="371.4297" x2="408.2217" gradientUnits="userSpaceOnUse" y1="632" y2="632" id="svg1.SVGID_6_">
	<stop offset="0" style="stop-color:#C9C9C9"/>
	<stop offset="1" style="stop-color:#808080"/>
</linearGradient>
<ellipse rx="18.396" fill="url(#svg1.SVGID_6_)" ry="3.926" cx="19.625" cy="17.426"/>
<linearGradient gradientTransform="matrix(1 0 0 1 -370.2002 -614.5742)" x1="370.2002" x2="409.4502" gradientUnits="userSpaceOnUse" y1="627.5938" y2="627.5938" id="svg1.SVGID_7_">
	<stop offset="0" style="stop-color:#4D4D4D"/>
	<stop offset="0.0558" style="stop-color:#5F5F5F"/>
	<stop offset="0.2103" style="stop-color:#8D8D8D"/>
	<stop offset="0.3479" style="stop-color:#AEAEAE"/>
	<stop offset="0.4623" style="stop-color:#C2C2C2"/>
	<stop offset="0.5394" style="stop-color:#C9C9C9"/>
	<stop offset="0.6247" style="stop-color:#C5C5C5"/>
	<stop offset="0.7072" style="stop-color:#BABABA"/>
	<stop offset="0.7885" style="stop-color:#A6A6A6"/>
	<stop offset="0.869" style="stop-color:#8B8B8B"/>
	<stop offset="0.9484" style="stop-color:#686868"/>
	<stop offset="1" style="stop-color:#4D4D4D"/>
</linearGradient>
<path fill="url(#svg1.SVGID_7_)" d="M19.625,10.113C8.787,10.113,0,8.238,0,5.925v10c0,2.313,8.787,4.188,19.625,4.188  c10.839,0,19.625-1.875,19.625-4.188v-10C39.25,8.238,30.464,10.113,19.625,10.113z"/>
<linearGradient gradientTransform="matrix(1 0 0 1 -370.2002 -614.5742)" x1="370.2002" x2="409.4502" gradientUnits="userSpaceOnUse" y1="621.5938" y2="621.5938" id="svg1.SVGID_8_">
	<stop offset="0" style="stop-color:#B3B3B3"/>
	<stop offset="0.0171" style="stop-color:#B6B6B6"/>
	<stop offset="0.235" style="stop-color:#D7D7D7"/>
	<stop offset="0.4168" style="stop-color:#EBEBEB"/>
	<stop offset="0.5394" style="stop-color:#F2F2F2"/>
	<stop offset="0.6579" style="stop-color:#EEEEEE"/>
	<stop offset="0.7724" style="stop-color:#E3E3E3"/>
	<stop offset="0.8853" style="stop-color:#CFCFCF"/>
	<stop offset="0.9965" style="stop-color:#B4B4B4"/>
	<stop offset="1" style="stop-color:#B3B3B3"/>
</linearGradient>
<path fill="url(#svg1.SVGID_8_)" d="M19.625,10.113c10.839,0,19.625-1.875,19.625-4.188l-1.229-2c0,2.168-8.235,3.926-18.396,3.926  c-9.481,0-17.396-1.959-18.396-3.926L0,5.925C0,8.238,8.787,10.113,19.625,10.113z"/>
<linearGradient gradientTransform="matrix(1 0 0 1 -370.2002 -614.5742)" x1="371.4297" x2="408.2217" gradientUnits="userSpaceOnUse" y1="618.5" y2="618.5" id="svg1.SVGID_9_">
	<stop offset="0" style="stop-color:#C9C9C9"/>
	<stop offset="1" style="stop-color:#808080"/>
</linearGradient>
<ellipse rx="18.396" fill="url(#svg1.SVGID_9_)" ry="3.926" cx="19.625" cy="3.926"/>
<path fill="#FFFFFF" d="M31.291,46.792c0,0-4.313,0.578-7.249,0.694  C20.917,47.613,15,47.613,15,47.613l-2.443-10.279l-0.119-2.283l-1.231-1.842L9.789,23.024l-0.082-0.119L9.3,20.715l-1.45-1.44  L5.329,8.793c0,0,5.296,0.882,7.234,1.07s8.375,0.25,8.375,0.25l3,9.875l-0.25,1.313l1.063,2.168l2.312,9.644l-0.375,1.875  l1.627,2.193L31.291,46.792z" enable-background="new    " opacity="0.24"/>
</svg>
      </g>
    </g>
    <g fill="url(#linearGradient2)" text-rendering="geometricPrecision" shape-rendering="geometricPrecision" transform="matrix(1,0,0,1,15,67)" stroke="url(#linearGradient2)">
      <path d="M164.5625 789.9861 C139.5 760.9903 164.5625 735.1011 205.665 753.7413 C205.665 735.1011 273.835 735.1011 273.835 753.7413 C314.9375 735.1011 340 760.9903 314.9375 783.7727 C340 812.7685 314.9375 838.6577 283.86 820.0175 C273.835 838.6577 205.665 838.6577 215.69 820.0175 C164.5625 838.6577 139.5 812.7685 164.5625 789.9861 Z" stroke="none" clip-path="url(#clipPath2)"/>
    </g>
    <g text-rendering="geometricPrecision" stroke-miterlimit="1.45" shape-rendering="geometricPrecision" transform="matrix(1,0,0,1,15,67)" stroke-linecap="butt">
      <path fill="none" d="M164.5625 789.9861 C139.5 760.9903 164.5625 735.1011 205.665 753.7413 C205.665 735.1011 273.835 735.1011 273.835 753.7413 C314.9375 735.1011 340 760.9903 314.9375 783.7727 C340 812.7685 314.9375 838.6577 283.86 820.0175 C273.835 838.6577 205.665 838.6577 215.69 820.0175 C164.5625 838.6577 139.5 812.7685 164.5625 789.9861 Z" clip-path="url(#clipPath2)"/>
    </g>
    <g text-rendering="geometricPrecision" stroke-miterlimit="1.45" shape-rendering="geometricPrecision" transform="matrix(1,0,0,1,15,67)" stroke-linecap="butt">
      <path fill="none" d="M504.75 607.1279 L504.75 637.6279 L583.5 658.6279 L583.5 707.8514" clip-path="url(#clipPath2)"/>
      <path d="M583.5 715.8514 L588.5 703.8514 L583.5 706.8514 L578.5 703.8514 Z" clip-path="url(#clipPath2)" stroke="none"/>
      <path fill="none" d="M769.75 607.1279 L769.75 637.6279 L691 658.6279 L691 707.8514" clip-path="url(#clipPath2)"/>
      <path d="M691 715.8514 L696 703.8514 L691 706.8514 L686 703.8514 Z" clip-path="url(#clipPath2)" stroke="none"/>
      <path fill="none" d="M1034.75 607.1279 L1034.75 731.4438" clip-path="url(#clipPath2)"/>
      <path d="M1034.75 739.4438 L1039.75 727.4438 L1034.75 730.4438 L1029.75 727.4438 Z" clip-path="url(#clipPath2)" stroke="none"/>
      <path fill="none" d="M239.75 607.1279 L239.75 731.7574" clip-path="url(#clipPath2)"/>
      <path d="M239.75 739.7574 L244.75 727.7574 L239.75 730.7574 L234.75 727.7574 Z" clip-path="url(#clipPath2)" stroke="none"/>
    </g>
  </g>
</svg>
